{"title":"Beastie Boys - Check Your Head [24-bit 44.1kHz flac] MC Lurken","uid":11761478,"size":569991713,"categoryP":"audio","categoryS":"flac","magnet":"?xt=urn:btih:4d5988b06b31e7d8aaf4f4b9e18d5c1836ce014f&amp;dn=Beastie+Boys+-+Check+Your+Head+%5B24-bit+44.1kHz+flac%5D+MC+Lurken&amp;tr=udp%3A%2F%2Ftracker.openbittorrent.com%3A80&amp;tr=udp%3A%2F%2Fopen.demonii.com%3A1337&amp;tr=udp%3A%2F%2Ftracker.coppersurfer.tk%3A6969&amp;tr=udp%3A%2F%2Fexodus.desync.com%3A6969","seeders":1,"leechers":0,"uploader":"beavis39","files":24,"time":1426602235,"description":"Beastie Boys - Check Your Head [24-bit 44.1kHz flac] MC Lurken\n\n\n\n1 - Jimmy James\n2 - Funky Boss\n3 - Pass The Mic\n4 - Gratitude\n5 - Lighten Up\n6 - Finger Lickin' Good\n7 - So What'cha Want\n8 - The Biz Vs The Nuge\n9 - Time For Livin'\n10 - Something's Got To Give\n11 - The Blue Nun\n12 - Stand Together\n13 - Pow\n14 - The Maestro\n15 - Groove Holmes\n16 - Live At P.J.'s\n17 - Mark On The Bus\n18 - Professor Booty\n19 - In 3's\n20 - Namaste\n\n\n\nfoobar2000 1.3.7 / Dynamic Range Meter 1.1.1\nlog date: 2015-03-17 03:04:55\n\n--------------------------------------------------------------------------------\nAnalyzed: Beastie Boys / Check Your Head\n--------------------------------------------------------------------------------\n\nDR Peak RMS Duration Track\n--------------------------------------------------------------------------------\nDR11 -0.07 dB -12.62 dB 3:15 01-Jimmy James\nDR10 -0.07 dB -12.31 dB 1:36 02-Funky Boss\nDR7 -0.54 dB -8.28 dB 4:17 03-Pass The Mic\nDR8 -0.07 dB -9.31 dB 2:46 04-Gratitude\nDR9 -0.07 dB -12.76 dB 2:42 05-Lighten Up\nDR9 -0.07 dB -10.08 dB 3:40 06-Finger Lickin' Good\nDR10 -0.07 dB -11.08 dB 3:37 07-So What'cha Want\nDR11 -4.82 dB -20.13 dB 0:34 08-The Biz Vs The Nuge\nDR10 -0.07 dB -11.51 dB 1:49 09-Time For Livin'\nDR11 -0.07 dB -12.62 dB 3:28 10-Something's Got To Give\nDR15 -1.88 dB -20.02 dB 0:32 11-The Blue Nun\nDR8 -0.07 dB -9.82 dB 2:47 12-Stand Together\nDR12 -0.07 dB -14.72 dB 2:14 13-Pow\nDR8 -0.07 dB -10.18 dB 2:52 14-The Maestro\nDR10 -0.54 dB -12.65 dB 2:33 15-Groove Holmes\nDR9 -0.07 dB -11.31 dB 3:18 16-Live At P.J.'s\nDR9 -0.56 dB -13.05 dB 1:06 17-Mark On The Bus\nDR10 -0.07 dB -11.43 dB 4:13 18-Professor Booty\nDR8 -0.07 dB -10.43 dB 2:23 19-In 3's\nDR12 -0.07 dB -14.34 dB 4:01 20-Namaste\n--------------------------------------------------------------------------------\n\nNumber of tracks: 20\nOfficial DR value: DR10\n\nSamplerate: 44100 Hz\nChannels: 2\nBits per sample: 24\nBitrate: 1369 kbps\nCodec: FLAC","torrent":{"xt":"urn:btih:4d5988b06b31e7d8aaf4f4b9e18d5c1836ce014f","amp;dn":"Beastie+Boys+-+Check+Your+Head+%5B24-bit+44.1kHz+flac%5D+MC+Lurken","amp;tr":["udp%3A%2F%2Ftracker.openbittorrent.com%3A80","udp%3A%2F%2Fopen.demonii.com%3A1337","udp%3A%2F%2Ftracker.coppersurfer.tk%3A6969","udp%3A%2F%2Fexodus.desync.com%3A6969"],"infoHash":"4d5988b06b31e7d8aaf4f4b9e18d5c1836ce014f","infoHashBuffer":{"type":"Buffer","data":[77,89,136,176,107,49,231,216,170,244,244,185,225,141,92,24,54,206,1,79]},"announce":[],"urlList":[]}}